HIERARCHY
ROOT RootJoint
{
    OFFSET   0.000000   0.000000   0.000000
    CHANNELS 6 Xposition Yposition Zposition Xrotation Yrotation Zrotation
    JOINT pelvis_lowerback
    {
        OFFSET   0.000000   0.093605   0.000000
        CHANNELS 3 Xrotation Yrotation Zrotation
        JOINT lowerback_torso
        {
            OFFSET   0.000000   0.100000   0.000000
            CHANNELS 3 Xrotation Yrotation Zrotation
            JOINT torso_head
            {
                OFFSET   0.000000   0.282350   0.000000
                CHANNELS 3 Xrotation Yrotation Zrotation
                End Site
                {
                    OFFSET   0.000000   0.192650   0.000000
                }
            }
            JOINT rTorso_Clavicle
            {
                OFFSET  -0.001000   0.157500   0.000000
                CHANNELS 3 Xrotation Yrotation Zrotation
                JOINT rShoulder
                {
                    OFFSET  -0.117647   0.000000   0.000000
                    CHANNELS 3 Xrotation Yrotation Zrotation
                    JOINT rElbow
                    {
                        OFFSET  -0.245000   0.000000   0.000000
                        CHANNELS 3 Xrotation Yrotation Zrotation
                        JOINT rWrist
                        {
                            OFFSET  -0.240000   0.000000   0.000000
                            CHANNELS 3 Xrotation Yrotation Zrotation
                            End Site
                            {
                                OFFSET  -0.116353  -0.002500   0.000000
                            }
                        }
                    }
                }
            }
            JOINT lTorso_Clavicle
            {
                OFFSET   0.001000   0.157500   0.000000
                CHANNELS 3 Xrotation Yrotation Zrotation
                JOINT lShoulder
                {
                    OFFSET   0.117647   0.000000   0.000000
                    CHANNELS 3 Xrotation Yrotation Zrotation
                    JOINT lElbow
                    {
                        OFFSET   0.245000   0.000000   0.000000
                        CHANNELS 3 Xrotation Yrotation Zrotation
                        JOINT lWrist
                        {
                            OFFSET   0.240000   0.000000   0.000000
                            CHANNELS 3 Xrotation Yrotation Zrotation
                            End Site
                            {
                                OFFSET   0.116353  -0.002500   0.000000
                            }
                        }
                    }
                }
            }
        }
    }
    JOINT rHip
    {
        OFFSET  -0.100000  -0.051395   0.000000
        CHANNELS 3 Xrotation Yrotation Zrotation
        JOINT rKnee
        {
            OFFSET   0.000000  -0.410000   0.000000
            CHANNELS 3 Xrotation Yrotation Zrotation
            JOINT rAnkle
            {
                OFFSET   0.000000  -0.390000   0.000000
                CHANNELS 3 Xrotation Yrotation Zrotation
                JOINT rToeJoint
                {
                    OFFSET   0.000000  -0.050000   0.130000
                    CHANNELS 3 Xrotation Yrotation Zrotation
                    End Site
                    {
                        OFFSET  -0.010000   0.002000   0.060000
                    }
                }
            }
        }
    }
    JOINT lHip
    {
        OFFSET   0.100000  -0.051395   0.000000
        CHANNELS 3 Xrotation Yrotation Zrotation
        JOINT lKnee
        {
            OFFSET   0.000000  -0.410000   0.000000
            CHANNELS 3 Xrotation Yrotation Zrotation
            JOINT lAnkle
            {
                OFFSET   0.000000  -0.390000   0.000000
                CHANNELS 3 Xrotation Yrotation Zrotation
                JOINT lToeJoint
                {
                    OFFSET   0.000000  -0.050000   0.130000
                    CHANNELS 3 Xrotation Yrotation Zrotation
                    End Site
                    {
                        OFFSET   0.010000   0.002000   0.060000
                    }
                }
            }
        }
    }
}
MOTION
Frames: 17
Frame Time:   0.008333
 -2.376719   0.925631   3.975860   0.000000   0.000000   0.000000   0.000000   0.000000   0.000000   0.000000   0.000000   0.000000   0.000000   0.000000   0.000000   0.000000   0.000000   0.000000   0.000000   0.000000   0.000000   0.000000   0.000000   0.000000   0.000000   0.000000   0.000000   0.000000   0.000000   0.000000   0.000000   0.000000   0.000000   0.000000   0.000000   0.000000   0.000000   0.000000   0.000000   0.000000   0.000000   0.000000   0.000000   0.000000   0.000000   0.000000   0.000000   0.000000   0.000000   0.000000   0.000000   0.000000   0.000000   0.000000   0.000000   0.000000   0.000000   0.000000   0.000000   0.000000   0.000000   0.000000   0.000000
 -2.376991   0.925673   3.974525   0.577876   0.058482  -0.144528  -0.507292   0.067980   0.125227  -0.180338  -0.146677  -0.008926  -0.135564  -0.147452   0.077710  -0.080135  -0.065827   0.028506  -0.846506   0.156674   1.571254   0.034317   2.539177   0.022185  -0.042367  -1.692711  -2.431020  -0.215228   0.212630  -0.267539  -0.766842  -0.084588  -1.448089   0.044248  -2.956744  -0.027086  -0.135835   1.647931   2.802081  -1.059071  -0.267526   0.066864   0.908218   0.000587  -0.001643  -0.711873  -0.626593  -0.019835  -0.033192  -0.000028   0.000241  -1.305743  -0.224329   0.382596   1.547991  -0.003277  -0.002131  -0.806784  -0.004782  -0.094438   0.207954  -0.000263  -0.000303
 -2.377441   0.925727   3.972863   1.059695   0.046388  -0.289329  -0.972822   0.172610   0.222880  -0.373872  -0.261161  -0.036613  -0.281248  -0.292252   0.162670  -0.163574   0.137233   0.562104  -1.664336   0.524464   3.442100   0.076320   5.058556   0.040069  -0.129289  -2.479724  -4.370018  -0.427567   0.181893  -1.074822  -1.510587  -0.375576  -3.234274   0.099904  -5.872653  -0.048901  -0.308394   2.279227   5.114024  -2.058433  -0.530213   0.036639   1.815032   0.001749  -0.003480  -1.378117  -1.220637  -0.047933  -0.101555  -0.000139   0.000707  -2.548016  -0.451954   0.935129   3.122904  -0.008466  -0.004468  -1.552797  -0.006130  -0.180856   0.400815  -0.000765  -0.000613
 -2.378004   0.925489   3.971005   1.471579   0.000256  -0.411614  -1.406804   0.287211   0.281360  -0.562910  -0.350186  -0.094586  -0.437700  -0.428061   0.243640  -0.245819   0.523418   1.418916  -2.449915   0.993319   5.462616   0.115384   7.473980   0.052732  -0.210328  -2.796310  -5.698434  -0.630456  -0.022305  -2.220925  -2.224412  -0.764813  -5.198423   0.152996  -8.654362  -0.064530  -0.466502   2.440020   6.755693  -2.990232  -0.774585  -0.100310   2.663621   0.003154  -0.004975  -2.000711  -1.776570  -0.081776  -0.171479  -0.000284   0.001078  -3.707558  -0.680968   1.596981   4.606761  -0.014139  -0.006110  -2.248132  -0.004480  -0.260253   0.577864  -0.001346  -0.000844
 -2.378646   0.924748   3.969019   1.832426  -0.057038  -0.510893  -1.806068   0.402704   0.303819  -0.742071  -0.423284  -0.181815  -0.599807  -0.555248   0.318732  -0.329416   1.016425   2.463838  -3.204337   1.501890   7.539577   0.146866   9.766791   0.060575  -0.279185  -2.856824  -6.562059  -0.825968  -0.331341  -3.565547  -2.907788  -1.194714  -7.241905   0.197272 -11.285483  -0.074612  -0.607084   2.366576   7.871381  -3.864037  -0.998977  -0.328750   3.451788   0.004575  -0.006027  -2.582946  -2.296405  -0.120141  -0.241233  -0.000441   0.001347  -4.795883  -0.912069   2.338757   5.989432  -0.019525  -0.006877  -2.897669  -0.000499  -0.333395   0.735617  -0.001889  -0.000970
 -2.379341   0.923352   3.966963   2.153537  -0.113706  -0.590424  -2.168163   0.515471   0.294856  -0.905921  -0.485705  -0.294541  -0.762449  -0.674302   0.387898  -0.416099   1.565887   3.602456  -3.927945   2.014146   9.608271   0.169261  11.930585   0.064315  -0.337289  -2.773215  -7.107128  -1.015751  -0.699149  -5.011470  -3.560468  -1.631187  -9.296691   0.230442 -13.762156  -0.080084  -0.733760   2.172587   8.613666  -4.685601  -1.203087  -0.630938   4.183376   0.005874  -0.006667  -3.127468  -2.782207  -0.161891  -0.309230  -0.000593   0.001520  -5.820374  -1.145627   3.139376   7.274780  -0.024201  -0.006874  -3.504544   0.005290  -0.400846   0.876142  -0.002343  -0.001006
 -2.380071   0.921201   3.964881   2.443050  -0.164046  -0.653615  -2.492895   0.624035   0.258848  -1.051363  -0.540213  -0.428875  -0.921695  -0.785677   0.451386  -0.506937   2.139787   4.769758  -4.620929   2.510163  11.625107   0.182839  13.965466   0.064799  -0.387148  -2.607812  -7.446721  -1.200929  -1.095912  -6.491457  -4.182506  -2.054874 -11.316607   0.252464 -16.086645  -0.081963  -0.850405   1.918503   9.102611  -5.458892  -1.387338  -0.990652   4.862677   0.006975  -0.006970  -3.636697  -3.236001  -0.206039  -0.374314  -0.000727   0.001609  -6.785884  -1.381686   3.981358   8.468828  -0.027965  -0.006299  -4.071491   0.012432  -0.463085   1.001940  -0.002693  -0.000977
 -2.380810   0.920362   3.962559   2.550918  -0.281083  -0.921867  -2.407545   0.697214   0.361375  -1.257822  -0.521129  -0.463288  -1.214204  -0.963383   0.509188  -0.560766   2.593834   5.712019  -5.376161   3.101851  13.587857   0.193319  16.180677   0.063266  -0.494031  -2.579567  -7.420803  -1.381879  -1.433103  -7.568993  -5.288836  -2.461348 -13.636005   0.268394 -18.559038  -0.091286  -1.065999   1.947601   9.110463  -6.123836  -1.752400  -0.734588   5.562542   0.005287  -0.008469  -3.399392  -3.880866  -0.016607  -0.306733  -0.000677   0.000634  -7.467573  -1.489754   4.891157   9.458913  -0.028159  -0.004939  -4.955083   0.198603  -0.553203   1.244445  -0.003346  -0.000560
 -2.381067   0.919827   3.960126   2.669331  -0.294717  -1.066915  -2.279007   0.708624   0.371509  -1.416467  -0.542018  -0.532140  -1.485586  -1.132947   0.562221  -0.621476   3.066328   6.482887  -6.103553   3.678611  15.375182   0.193491  18.274487   0.058624  -0.580382  -2.419629  -7.361398  -1.565747  -1.826995  -8.472026  -6.343370  -2.864041 -15.767973   0.270230 -20.894960  -0.093789  -1.274369   1.874996   9.030979  -6.723296  -2.009081  -0.617916   6.153114   0.004078  -0.008157  -3.338011  -4.402140   0.014629  -0.214631  -0.000552  -0.000120  -8.142325  -1.591815   5.487255  10.363248  -0.026276  -0.003223  -5.787615   0.374128  -0.637238   1.424710  -0.003274  -0.000160
 -2.380993   0.919404   3.957637   2.814557  -0.277564  -1.169793  -2.126574   0.701075   0.361833  -1.547599  -0.582540  -0.615260  -1.734808  -1.291194   0.608770  -0.694423   3.547615   7.109090  -6.806147   4.231721  16.990548   0.186725  20.242870   0.052453  -0.648418  -2.185938  -7.388214  -1.756117  -2.255176  -9.233510  -7.349574  -3.252489 -17.713918   0.262470 -23.093475  -0.091798  -1.456144   1.713947   9.017961  -7.296586  -2.226781  -0.562186   6.647907   0.003225  -0.007388  -3.332202  -4.878221   0.024789  -0.139567  -0.000432  -0.000533  -8.802580  -1.686595   5.911451  11.194963  -0.023496  -0.001808  -6.566293   0.535903  -0.713353   1.576468  -0.002959   0.000128
 -2.380678   0.919024   3.955157   2.986454  -0.266153  -1.262833  -1.959595   0.687079   0.350285  -1.660411  -0.630032  -0.696558  -1.963171  -1.438563   0.651136  -0.779464   4.027181   7.617220  -7.484179   4.757479  18.453999   0.175774  22.090929   0.045783  -0.701759  -1.903878  -7.510512  -1.952362  -2.695612  -9.872936  -8.309451  -3.618588 -19.489704   0.248730 -25.159045  -0.086964  -1.614731   1.487037   9.094292  -7.856493  -2.422500  -0.528716   7.067308   0.002602  -0.006577  -3.354846  -5.319507   0.027391  -0.073990  -0.000329  -0.000778  -9.432076  -1.774075   6.228330  11.962230  -0.020408  -0.000878  -7.294134   0.686353  -0.783156   1.709830  -0.002556   0.000301
 -2.380172   0.918657   3.952735   3.182830  -0.276075  -1.358498  -1.785999   0.670416   0.341668  -1.760609  -0.679369  -0.769618  -2.172166  -1.575892   0.690195  -0.873895   4.495344   8.031219  -8.136478   5.252246  19.785398   0.162556  23.823860   0.039249  -0.743379  -1.590906  -7.711811  -2.152139  -3.132839 -10.407678  -9.223773  -3.957416 -21.111155   0.231629 -27.096756  -0.080450  -1.754307   1.215540   9.253587  -8.407033  -2.602356  -0.501060   7.424823   0.002137  -0.005840  -3.394333  -5.730323   0.026737  -0.015567  -0.000245  -0.000923 -10.020833  -1.854702   6.469607  12.673789  -0.017326  -0.000406  -7.973996   0.826466  -0.846988   1.829272  -0.002135   0.000380
 -2.379504   0.918290   3.950409   3.401015  -0.313013  -1.461676  -1.611768   0.652039   0.337290  -1.851988  -0.728852  -0.832313  -2.363530  -1.703968   0.726208  -0.974123   4.944305   8.370644  -8.761461   5.713114  21.001678   0.148357  25.446745   0.033207  -0.775899  -1.261960  -7.973183  -2.352722  -3.556670 -10.853544 -10.092970  -4.266616 -22.593188   0.213001 -28.912245  -0.073061  -1.878323   0.916615   9.483614  -8.949081  -2.769464  -0.471924   7.730026   0.001780  -0.005195  -3.444517  -6.113545   0.024787   0.036932  -0.000177  -0.001001 -10.563721  -1.928430   6.652951  13.336908  -0.014412  -0.000294  -8.608763   0.957028  -0.905331   1.937424  -0.001730   0.000393
 -2.378702   0.917714   3.948377   3.515844  -0.431655  -1.650581  -1.312131   0.657106   0.393934  -1.965331  -0.724016  -0.797696  -2.514881  -1.752825   0.805796  -1.147292   5.296087   8.470708  -9.379296   6.205374  21.954664   0.130142  27.062598   0.029290  -0.868407  -1.038855  -7.846388  -2.506911  -4.033078 -11.001799 -11.090266  -4.559620 -23.952175   0.189282 -30.600251  -0.066351  -2.130074   0.764844   9.429677  -9.351799  -2.944999  -0.356531   7.981212   0.001487  -0.004754  -3.355851  -6.370811   0.072613   0.128820  -0.000134  -0.001221 -10.736481  -1.905195   6.910935  13.440981  -0.011586  -0.000241  -8.705151   1.091498  -0.877894   1.983424  -0.001415   0.000354
 -2.377786   0.917613   3.946497   3.618604  -0.476230  -1.633826  -1.001269   0.623525   0.276004  -2.081947  -0.744306  -0.811421  -2.648642  -1.796105   0.885639  -1.331595   5.627212   8.478292  -9.979970   6.671348  22.775406   0.111796  28.582707   0.025819  -0.947909  -0.769960  -7.846773  -2.691745  -4.510926 -11.001053 -12.057276  -4.848129 -25.117963   0.164887 -32.185040  -0.060115  -2.365756   0.589869   9.509412  -9.672997  -3.098988  -0.462716   8.131332   0.001252  -0.004082  -3.362879  -6.606305   0.093600   0.235523  -0.000074  -0.001387 -11.065578  -1.848247   6.852770  13.614392  -0.009192  -0.000113  -8.660535   1.242430  -0.917683   2.081836  -0.001052   0.000445
 -2.376868   0.917536   3.944922   3.717068  -0.582182  -1.620411  -0.729749   0.611917   0.198423  -2.207251  -0.752210  -0.822277  -2.763307  -1.835141   0.954494  -1.523743   5.942231   8.373647 -10.560511   7.113844  23.475195   0.093741  30.009121   0.023467  -1.014475  -0.473538  -7.954992  -2.883663  -4.960521 -10.892772 -12.981571  -5.115493 -26.142505   0.141130 -33.674652  -0.054356  -2.580319   0.375748   9.713721  -9.953145  -3.229436  -0.555982   8.237245   0.001043  -0.003495  -3.392401  -6.821605   0.103522   0.325455  -0.000027  -0.001469 -11.347480  -1.803890   6.795796  13.776941  -0.007285  -0.000135  -8.647919   1.368421  -0.926313   2.156221  -0.000798   0.000411
 -2.375961   0.917467   3.943639   3.818320  -0.733081  -1.605777  -0.499446   0.607677   0.142190  -2.351971  -0.752975  -0.820798  -2.867316  -1.871487   1.019578  -1.719088   6.237533   8.202655 -11.118830   7.529363  24.079857   0.076907  31.345180   0.022123  -1.070368  -0.161392  -8.162273  -3.077101  -5.377711 -10.714956 -13.861548  -5.358187 -27.047279   0.119054 -35.070424  -0.049120  -2.775952   0.135160  10.023996 -10.211944  -3.350398  -0.643957   8.321648   0.000867  -0.003005  -3.426737  -7.022441   0.111690   0.405263   0.000007  -0.001508 -11.594787  -1.763458   6.739863  13.924413  -0.005772  -0.000223  -8.642580   1.484588  -0.931917   2.222591  -0.000600   0.000341
